<?xml version="1.0" encoding="utf-8"?>
<!-- Generator: Adobe Illustrator 15.1.0, SVG Export Plug-In . SVG Version: 6.00 Build 0)  -->
<!DOCTYPE svg PUBLIC "-//W3C//DTD SVG 1.1//EN" "http://www.w3.org/Graphics/SVG/1.1/DTD/svg11.dtd">
<svg version="1.1" id="Layer_1" xmlns="http://www.w3.org/2000/svg" xmlns:xlink="http://www.w3.org/1999/xlink" x="0px" y="0px"
	 width="190.06px" height="100.333px" viewBox="0 0 190.06 100.333" enable-background="new 0 0 190.06 100.333"
	 xml:space="preserve">
<g>
	<path fill="#651139" stroke="#651139" stroke-miterlimit="10" d="M85.21,30.643c-0.499-1.336-1.651-4.438-1.854-7.927
		c-0.272-1.709-0.857-5.171-0.378-7.657c0.102-0.421,0.328-0.794,0.43-1.214c0.102-0.42-0.011-0.807,0.091-1.228
		c0.104-0.505,0.334-0.963,0.48-1.424l0.196-0.672c0.044-1.103,1.821-4.216,3.407-5.683c1.146-1.059,3.709-2.529,5.879-2.656
		c0.383-0.028,2.031,0.165,2.074,0.125l-0.04-0.044c0.337,0.098,0.492,0.443,0.832,0.457c1.237-0.164,1.044,0.423,2.824,0.493
		c0.038,0.129,0.16,0.261,0.241,0.349c0.384-0.027,2.524,1.67,3.38,2.595c0.774,0.837,0.92,1.437,0.623,2.529
		c0.124,0.047,0.206,0.135,0.288,0.224c0.773,0.837-0.031,4.032-0.121,6.321l-0.264,0.244c-0.309,0.285-0.075,0.804-0.166,0.971
		c-1.135,2.928-0.789,1.71-1.121,2.588c-0.051,0.209-0.026,0.678-0.073,0.803c-0.14,0.292-3.106,4.506-3.327,4.709
		c-0.43,0.153-1.936,0.646-2.057,0.512c4.08-3.767,6.688-7.962,6.095-13.675c-0.563-5.424-4.455-8.734-10.112-8.032
		c-9.876,1.226-7.935,15.725-5.434,22.213c1.139,2.955,2.919,5.606,4.225,8.483c0.272,0.599,2.661,6.864,2.429,7.079
		c-0.485,0.448-0.919-0.376-1.272-0.05c-0.043,0.041-0.047,0.125-0.141,0.207c-0.958-0.047-3.199-3.581-4.029-4.235
		c-1.614-1.272-3.343-1.817-5.373-2.057c-4.131-0.488-8.222,0.923-11.321,3.706c-6.419,5.764-7.465,13.32-6.801,21.62
		c0.708,8.862,4.098,15.411,7.654,23.283c1.352,2.991,3.577,5.651,6.092,7.737c1.325,1.097,2.933,1.777,4.495,2.458
		c1.304,0.568,2.828,1.249,4.244,1.374c3.323,0.293,6.875-1.682,8.713-4.277c1.954-2.76,3.05-6.397,3.552-9.709
		c0.862-5.688,0.231-15.853-4.732-19.746c-1.704,2.08-7.651,8.879-9.348,3.192c-1.612-5.404,5.651-7.927,8.237-6.365
		c0.321,0.194,0.722,0.212,0.885-0.116c0.609-1.229,1.692-4.318,2.382-6.571c1.092-3.563,1.857-7.216,3.088-10.737
		c1.659-4.743,3.863-9.382,6.871-13.43c3.715-5.001,8.094-6.074,14.058-6.696c-0.157,0.017-0.32,2.172-1.029,2.381
		c-0.299,0.088-1.907-1.12-2.424-1.192c-2.478-0.349-5.727,1.818-7.584,3.25c-2.699,2.081-4.489,4.82-5.853,7.907
		c-2.033,4.6-3.636,9.375-5.165,14.161c-0.848,2.657-2.695,8.739-4.104,11.476c-0.154,0.299,0.223,0.613,0.436,0.853
		c0.848,0.953,1.793,2.367,2.495,3.349c1.353,1.895,1.551,4.358,2.021,6.062c0.523,1.902,0.93,3.834,1.084,5.804
		c0.293,3.744-0.29,7.524-1.377,11.105c-1.251,4.121-3.572,8.044-7.162,10.531c-7.405,5.129-16.124,1.677-21.334-4.671
		c-4.801-5.852-6.754-12.247-8.605-19.376c-0.728-2.804-0.906-5.483-1.121-8.352c-0.468-6.247,0.294-13.05,3.358-18.556
		c2.698-4.848,7.571-10.792,13.491-11.767C81.458,33.137,87.155,35.849,85.21,30.643z M87.598,63.896
		c1.088,1.654,2.493,1.373,3.902,0.069c0.971-0.896,1.918-2.345,2.268-3.648c-1.847-1.643-4.098-0.542-5.64,0.883
		C87.82,61.484,87.092,63.127,87.598,63.896z"/>
</g>
<g>
	<path fill="#651139" d="M48.616,79.087c-0.529,0-1.057-0.009-1.585-0.026c-0.529-0.018-1.057-0.043-1.585-0.077
		c-0.302-0.035-0.576-0.069-0.821-0.103c-0.246-0.035-0.5-0.086-0.764-0.155c-0.152,0-0.283-0.009-0.396-0.026
		c-0.113-0.018-0.246-0.043-0.396-0.077c-0.114-0.069-0.237-0.112-0.368-0.129c-0.133-0.018-0.255-0.043-0.368-0.078
		c-1.02-0.275-1.945-0.67-2.774-1.186c-0.227-0.138-0.435-0.275-0.623-0.413c-0.189-0.138-0.378-0.292-0.566-0.464
		c-0.302-0.276-0.585-0.619-0.849-1.032c-0.151-0.172-0.274-0.361-0.368-0.567c-0.095-0.207-0.18-0.413-0.254-0.619
		c-0.19-0.482-0.303-0.928-0.34-1.341c-0.076-0.447-0.114-0.894-0.114-1.34c0-0.447,0.019-0.912,0.057-1.393
		c0.075-0.447,0.142-0.902,0.198-1.367c0.057-0.464,0.123-0.937,0.199-1.418c0.075-0.481,0.169-0.954,0.283-1.418
		c0.113-0.464,0.227-0.938,0.34-1.418l0.283-1.444c0.037-0.24,0.075-0.472,0.113-0.696c0.037-0.223,0.094-0.472,0.17-0.748
		c0.076-0.481,0.15-0.971,0.227-1.47c0.075-0.498,0.132-1.005,0.17-1.521c0.037-0.24,0.065-0.481,0.085-0.722
		c0.019-0.24,0.028-0.498,0.028-0.773v-1.599c-0.038-0.172-0.057-0.43-0.057-0.774l-0.113-0.773l-0.17-0.773
		c-0.038-0.137-0.066-0.275-0.084-0.413c-0.02-0.137-0.066-0.275-0.142-0.413c-0.302-1.065-0.792-2.045-1.472-2.939
		c-0.303-0.481-0.671-0.911-1.104-1.29c-0.434-0.378-0.877-0.722-1.33-1.031c-0.982-0.619-2.001-1.083-3.058-1.393l-0.227-0.103
		h0.113c0.528-0.069,1.066-0.129,1.614-0.181c0.547-0.052,1.084-0.111,1.614-0.18c1.094-0.207,2.151-0.465,3.17-0.774
		c1.056-0.309,2.057-0.722,3-1.237c0.264-0.103,0.519-0.224,0.765-0.361c0.245-0.137,0.481-0.275,0.708-0.413
		c0.226-0.171,0.453-0.335,0.679-0.49c0.227-0.155,0.453-0.317,0.68-0.49c0.868-0.687,1.642-1.443,2.322-2.269
		c0.226-0.274,0.376-0.498,0.453-0.67c0.226-0.275,0.377-0.499,0.453-0.671l0.453-0.67l0.396-0.722
		c0.226-0.481,0.433-0.962,0.623-1.444c0.188-0.481,0.34-0.979,0.453-1.496c0.264-1.032,0.434-2.063,0.51-3.094v-0.774
		c0-0.137,0-0.274,0-0.412c0-0.137-0.02-0.275-0.057-0.413c0-0.275-0.02-0.542-0.057-0.799c-0.038-0.258-0.095-0.524-0.169-0.8
		c-0.113-0.516-0.255-1.022-0.425-1.521c-0.169-0.498-0.388-0.988-0.651-1.47c-0.226-0.516-0.509-0.979-0.849-1.392
		c-0.151-0.24-0.302-0.465-0.453-0.671c-0.151-0.207-0.321-0.413-0.509-0.619c-0.756-0.859-1.567-1.581-2.435-2.167
		c-0.416-0.343-0.859-0.644-1.331-0.902c-0.472-0.258-0.954-0.524-1.444-0.799c-0.982-0.481-1.981-0.877-3-1.186
		c-1.02-0.31-2.076-0.55-3.171-0.722c-0.529-0.069-1.057-0.137-1.585-0.207c-0.529-0.068-1.057-0.103-1.585-0.103
		c-0.529-0.033-1.067-0.051-1.613-0.051c-0.126,0-0.247,0.021-0.372,0.024c-0.248-0.008-0.491-0.024-0.742-0.024
		c-0.548,0-1.086,0.035-1.614,0.103c-1.02,0.035-2.077,0.189-3.171,0.464c-0.529,0.104-1.039,0.232-1.529,0.387
		c-0.491,0.155-1,0.319-1.529,0.491c-0.491,0.172-0.982,0.361-1.472,0.567c-0.491,0.207-0.963,0.447-1.416,0.722
		c-0.906,0.447-1.793,0.998-2.661,1.65c-0.416,0.344-0.812,0.688-1.189,1.032c-0.378,0.344-0.736,0.705-1.076,1.083
		c-0.717,0.688-1.34,1.496-1.868,2.424c-0.303,0.413-0.548,0.851-0.736,1.314c-0.189,0.464-0.378,0.938-0.566,1.418
		c-0.378,0.998-0.586,1.978-0.623,2.94c-0.038,0.241-0.057,0.482-0.057,0.722c0,0.241,0,0.499,0,0.773
		c0,0.55,0.057,1.049,0.169,1.496c0.151,1.032,0.434,2.011,0.85,2.939c0.83,1.857,2.076,3.542,3.737,5.054l1.302,0.98l1.359,0.928
		l1.415,0.773l0.057,0.052c-0.378,0.86-0.736,1.711-1.076,2.553c-0.34,0.843-0.68,1.676-1.019,2.501
		c-0.19,0.55-0.396,1.092-0.623,1.625c-0.227,0.534-0.453,1.057-0.68,1.573l-0.679,1.599l-0.679,1.547
		c-0.265,0.516-0.52,1.032-0.765,1.547c-0.246,0.516-0.481,1.032-0.708,1.547l-1.528,3.043l-1.698,2.991L7.36,65.678L6.285,67.02
		c-0.756,0.859-1.624,1.599-2.605,2.218c-0.151,0.068-0.283,0.137-0.396,0.206c-0.113,0.069-0.246,0.137-0.396,0.207
		c-0.227,0.137-0.491,0.24-0.793,0.31c-0.189,0.068-0.472,0.137-0.849,0.206c-0.377,0.069-0.679,0.104-0.906,0.104
		c-0.226,0-0.34,0.103-0.34,0.309s0.114,0.309,0.34,0.309c0.188,0,0.358,0,0.509,0c0.134,0,0.289-0.019,0.454-0.045
		c0.047,0.018,0.083,0.045,0.15,0.045c0.189,0,0.358,0,0.51,0c0.15,0,0.32-0.017,0.51-0.051l0.962-0.155l0.962-0.309
		c0.15-0.069,0.292-0.138,0.424-0.207c0.132-0.069,0.273-0.138,0.425-0.206c0.604-0.276,1.161-0.593,1.67-0.955
		c0.51-0.361,1.01-0.748,1.501-1.16l1.358-1.289l1.246-1.341c0.416-0.482,0.802-0.963,1.161-1.444
		c0.358-0.481,0.708-0.962,1.048-1.444c0.716-0.928,1.358-1.925,1.925-2.991c0.641-1.1,1.208-2.148,1.698-3.146
		c0.15-0.275,0.292-0.533,0.425-0.774c0.131-0.24,0.254-0.498,0.368-0.773l0.792-1.599c0.263-0.516,0.509-1.04,0.735-1.573
		c0.227-0.533,0.453-1.074,0.68-1.625c0.49-1.065,0.953-2.131,1.387-3.198c0.434-1.065,0.858-2.148,1.274-3.249l1.246-3.198
		l1.246-3.25l1.245-3.197c0.075-0.275,0.17-0.542,0.283-0.799c0.114-0.258,0.227-0.524,0.34-0.799l0.34-0.773l0.283-0.773
		c0.227-0.516,0.453-1.032,0.679-1.548c0.227-0.516,0.49-1.014,0.793-1.496c0.075-0.137,0.142-0.257,0.198-0.361
		c0.057-0.103,0.122-0.206,0.198-0.309l0.51-0.67l0.227-0.258c0.075-0.068,0.122-0.12,0.141-0.154
		c0.019-0.034,0.066-0.069,0.142-0.104c0.075-0.034,0.122-0.068,0.141-0.103c0.019-0.034,0.065-0.052,0.142-0.052l0.17-0.103h0.113
		c0.227-0.069,0.377-0.188,0.453-0.361c0.075-0.275-0.057-0.447-0.396-0.516l-0.057-0.051h-0.283c-0.076,0-0.133,0.009-0.169,0.025
		c-0.038,0.018-0.095,0.026-0.17,0.026l-0.237,0.065c-0.056-0.026-0.119-0.049-0.197-0.065l-0.057-0.051h-0.283
		c-0.076,0-0.133,0.009-0.17,0.025c-0.038,0.018-0.095,0.026-0.169,0.026l-0.566,0.155c-0.378,0.172-0.68,0.361-0.906,0.567
		c-0.529,0.379-1,0.843-1.416,1.393l-1.132,1.444l-0.51,0.774l-0.453,0.773c-0.642,1.101-1.208,2.149-1.698,3.146l-0.396,0.774
		l-0.34,0.825c-0.151,0.275-0.283,0.534-0.396,0.774c-0.113,0.241-0.226,0.499-0.339,0.773l-1.359,3.197l-0.679,1.599l-0.091,0.199
		l-0.211-0.096c-0.491-0.207-0.906-0.429-1.246-0.67l-1.189-0.774c-0.793-0.584-1.472-1.22-2.038-1.908
		c-0.604-0.652-1.114-1.409-1.528-2.269c-0.19-0.378-0.368-0.781-0.539-1.212c-0.169-0.43-0.292-0.868-0.368-1.315
		c-0.113-0.446-0.189-0.884-0.226-1.314c-0.038-0.43-0.057-0.885-0.057-1.367c0.037-0.859,0.188-1.736,0.453-2.63
		c0.15-0.447,0.312-0.885,0.481-1.315c0.17-0.43,0.387-0.851,0.651-1.264c0.453-0.755,1-1.512,1.642-2.269
		c0.301-0.378,0.631-0.73,0.991-1.057c0.358-0.327,0.726-0.645,1.104-0.954c0.415-0.275,0.821-0.549,1.217-0.825
		c0.396-0.274,0.821-0.533,1.274-0.774c0.83-0.515,1.735-0.928,2.717-1.237c0.49-0.172,0.972-0.335,1.444-0.49
		c0.472-0.155,0.953-0.284,1.444-0.387c1.019-0.207,2.038-0.361,3.058-0.465c0.648-0.006,1.296-0.021,1.943,0
		c0.943,0.035,1.944,0.173,3.001,0.413c2.038,0.482,3.85,1.238,5.435,2.27c1.622,1.066,2.962,2.355,4.02,3.868
		c1.019,1.513,1.642,3.112,1.868,4.796c0.037,0.206,0.065,0.412,0.084,0.618c0.019,0.207,0.029,0.413,0.029,0.619v0.619
		c-0.038,0.069-0.057,0.172-0.057,0.31v0.309c-0.076,0.447-0.141,0.886-0.198,1.315c-0.057,0.43-0.141,0.851-0.255,1.263
		c-0.226,0.826-0.509,1.65-0.849,2.476c-0.076,0.103-0.123,0.206-0.142,0.31c-0.02,0.103-0.066,0.189-0.141,0.257
		c-0.038,0.138-0.133,0.344-0.283,0.619l-0.34,0.568l-0.34,0.567c-0.529,0.722-1.104,1.411-1.727,2.063
		c-0.623,0.653-1.312,1.255-2.066,1.805c-1.585,1.169-3.34,2.012-5.266,2.527c-0.944,0.31-1.944,0.516-3,0.619
		c-0.265,0.069-0.519,0.103-0.764,0.103c-0.246,0-0.501,0.018-0.765,0.051h-0.472h-0.057H26.61h-0.057
		c-0.076,0-0.132,0.018-0.169,0.052l-0.114,0.052l-0.169,0.155c-0.038,0.069-0.057,0.154-0.057,0.258
		c0.075,0.344,0.283,0.516,0.623,0.516h0.17c0.188,0.035,0.386,0.077,0.594,0.129c0.207,0.052,0.424,0.095,0.651,0.129
		c0.264,0.069,0.51,0.155,0.736,0.258c0.226,0.104,0.453,0.207,0.679,0.31c0.943,0.412,1.792,0.928,2.547,1.547
		c0.189,0.173,0.358,0.335,0.51,0.49c0.15,0.155,0.302,0.318,0.453,0.49c0.15,0.172,0.283,0.361,0.396,0.568
		c0.113,0.206,0.226,0.396,0.34,0.567c0.075,0.207,0.15,0.413,0.226,0.619c0.075,0.206,0.151,0.413,0.227,0.619
		c0.075,0.206,0.122,0.421,0.141,0.645c0.019,0.224,0.047,0.438,0.085,0.645c0.076,0.447,0.113,0.894,0.113,1.34
		c0,0.448,0,0.912,0,1.393c-0.037,0.138-0.056,0.361-0.056,0.671c-0.038,0.103-0.057,0.215-0.057,0.335c0,0.121,0,0.232,0,0.335
		l-0.17,1.393l-0.453,2.888l-0.227,1.444l-0.227,1.444c-0.076,0.481-0.132,0.971-0.17,1.47c-0.038,0.498-0.076,1.006-0.113,1.521
		C33.027,67.5,32.999,68,32.98,68.515c-0.02,0.516,0.008,1.032,0.084,1.547c0.037,0.516,0.094,1.039,0.17,1.573
		c0.075,0.533,0.207,1.057,0.396,1.573c0.076,0.274,0.161,0.523,0.255,0.748c0.093,0.223,0.217,0.472,0.368,0.748
		c0.113,0.24,0.246,0.472,0.396,0.696c0.15,0.224,0.32,0.456,0.509,0.696c0.377,0.413,0.793,0.791,1.246,1.135
		c0.377,0.31,0.85,0.601,1.416,0.877c0.528,0.275,1.056,0.49,1.585,0.645c0.528,0.155,1.056,0.3,1.585,0.438l0.793,0.155
		l0.849,0.154l1.585,0.155c1.056,0.103,2.151,0.154,3.284,0.154c0.04,0,0.054-0.02,0.089-0.024c0.34,0.01,0.677,0.024,1.024,0.024
		c0.302,0,0.453-0.121,0.453-0.361C48.993,79.173,48.843,79.053,48.616,79.087z"/>
	<g>
		<path fill="#651139" d="M48.75,79.008c-4.199-0.068-8.874-0.428-11.394-4.308c-2.244-3.455,0.079-9.437,0.931-13.186
			c0.566-2.493,0.815-5.501,0.258-8.037c-0.695-3.165-3.908-8.259-7.684-7.836c6.603-0.739,12.986-2.664,16.4-8.882
			c4.857-8.848-0.888-17.308-9.605-20.35c-7.019-2.45-15.16-1.057-21.492,2.465c-8.876,4.937-9.819,16.818-1.748,22.894
			c0.876,0.66,1.784,1.23,2.744,1.755c0.763,0.417-1.922,5.912-2.302,6.901c-1.222,3.185-2.747,6.291-4.275,9.334
			c-1.031,2.054-2.15,4.044-3.425,5.957C5.511,68.185,3.293,69.651,0.38,70.2c-0.254,0.048-0.362,0.213-0.565,0.397
			c-0.018,0.016-0.029,0.031-0.009,0.049c1.691,1.539,5.814-0.715,7.266-1.64c7.41-4.72,11.119-14.667,14.371-22.396
			c2.76-6.561,4.535-17.069,10.146-21.538c0.014-0.008,0.02-0.021,0.02-0.036c-1.439-1.873-4.442,0.501-5.484,1.692
			c-2.338,2.672-3.851,6.061-5.265,9.283c-0.637,1.453-1.242,2.921-1.862,4.382c-0.582,1.37-5.086-3.614-5.379-3.985
			c-2.324-2.939-2.157-7.052-0.952-10.35c2.748-7.516,13.217-10.46,20.115-9.195c7.853,1.441,12.406,8.456,10.894,15.95
			c-1.424,7.06-8.928,11.848-15.818,11.848c-0.626,0-1.828-0.221-2.016,0.633c-0.007,0.013-0.004,0.022,0.008,0.03
			c1.893,1.568,4.537,1.481,6.511,3.378c1.987,1.909,2.127,4.983,1.914,7.543c-0.304,3.627-1.145,7.191-1.416,10.83
			c-0.536,7.196,2.607,11.23,9.604,12.501c1.846,0.335,5.188,1.129,6.79-0.146c0.018-0.014,0.03-0.033,0.009-0.049
			c-0.151-0.121-0.302-0.241-0.453-0.361c-0.084-0.067-0.438,0.096-0.388,0.136c1.148,0.916-4.581,0.488-2.456,0.537
			c-1.332-0.031-2.698-0.184-4.013-0.423c-5.429-0.986-8.121-4.054-8.684-9.262c-0.47-4.355,0.681-9.527,1.416-13.873
			c0.802-4.744-2.302-10.442-7.714-10.442c-1.471,0,0.241-0.874,0.854-0.874c0.625,0,1.241-0.071,1.859-0.164
			c3.129-0.471,5.823-1.452,8.462-3.215c4.311-2.88,5.565-7.135,6.447-11.917c1.367-7.405-8.285-13.227-14.509-13.227
			c-6.38,0-12.412,2.34-16.42,7.441c-4.804,6.113-1.513,14.296,5.074,17.3c0.085,0.039,0.353-0.012,0.396-0.106
			c1.807-3.942,3.326-7.915,5.526-11.674c0.955-1.631,3.188-5.225,5.237-4.548c0.202,0.067,1.814,0.449,0.925,0.688
			c-1.886,0.505-2.956,3.949-3.527,5.252c-1.494,3.406-2.708,6.954-4.059,10.421c-2.836,7.277-5.673,14.868-10.208,21.295
			c-2.26,3.203-5.302,6.877-9.181,8.123c-2.624,0.842-3.367,0.17-0.89-0.797c3.553-1.387,5.506-5.383,7.267-8.484
			c3.154-5.556,5.241-11.689,7.757-17.535c0.007-0.013,0.004-0.022-0.008-0.03c-0.746-0.676-1.982-1.174-2.831-1.753
			c-3.146-2.149-5.086-5.297-5.877-8.961c-2.9-13.44,14.973-18.382,24.858-17.094c7.011,0.913,14.516,6.165,14.516,13.852
			c0,9.432-8.449,15.802-17.666,15.802c-0.044,0-0.398,0.115-0.328,0.147c9.297,4.228,8.376,11.738,6.333,20.264
			c-0.903,3.769-1.562,8.266,1.764,10.989c2.63,2.154,6.552,2.228,9.741,2.28C48.562,79.167,48.948,79.012,48.75,79.008z"/>
	</g>
</g>
<g>
	<path fill="#651139" d="M189.837,46.344c0.111-0.213,0.036-0.39-0.223-0.532c-0.223-0.107-0.409-0.036-0.557,0.213
		c-0.186,0.354-0.361,0.71-0.528,1.063c-0.167,0.356-0.344,0.71-0.529,1.065c-0.186,0.354-0.362,0.709-0.528,1.064
		c-0.167,0.354-0.344,0.71-0.529,1.064l-2.17,4.204l-2.337,4.15c-0.409,0.71-0.816,1.402-1.224,2.076
		c-0.409,0.674-0.816,1.349-1.224,2.022c-0.409,0.673-0.835,1.337-1.28,1.995c-0.445,0.656-0.91,1.304-1.391,1.943
		c-0.223,0.319-0.455,0.638-0.695,0.958c-0.242,0.319-0.492,0.639-0.751,0.958c-0.26,0.284-0.52,0.576-0.779,0.878
		c-0.077,0.089-0.167,0.159-0.246,0.243c0.194-0.229,0.387-0.457,0.582-0.695l1.502-1.917c0.482-0.674,0.937-1.338,1.363-1.995
		c0.426-0.657,0.863-1.322,1.308-1.996c0.408-0.709,0.815-1.392,1.224-2.049c0.408-0.656,0.815-1.338,1.224-2.048
		c0.408-0.709,0.807-1.41,1.196-2.102c0.39-0.692,0.77-1.392,1.141-2.102l2.281-4.203l2.17-4.257
		c0.111-0.213,0.036-0.39-0.223-0.532c-0.223-0.107-0.409-0.036-0.557,0.213c-0.186,0.354-0.361,0.71-0.528,1.063
		c-0.167,0.356-0.344,0.71-0.529,1.065c-0.186,0.354-0.362,0.709-0.528,1.064c-0.167,0.354-0.344,0.71-0.529,1.064l-2.17,4.204
		l-2.337,4.15c-0.409,0.71-0.816,1.402-1.224,2.076c-0.409,0.674-0.816,1.349-1.224,2.022c-0.409,0.673-0.835,1.337-1.28,1.995
		c-0.445,0.656-0.91,1.304-1.391,1.943c-0.223,0.319-0.455,0.638-0.695,0.958c-0.242,0.319-0.492,0.639-0.751,0.958
		c-0.26,0.284-0.52,0.576-0.779,0.878c-0.26,0.301-0.538,0.576-0.835,0.825l-0.89,0.745c-0.186,0.106-0.353,0.205-0.5,0.293
		c-0.149,0.088-0.316,0.167-0.501,0.239c-0.033,0.019-0.062,0.027-0.094,0.042l-0.074-0.042l-0.111-0.212
		c-0.075-0.178-0.075-0.445,0-0.798c0-0.178,0.019-0.347,0.056-0.506c0.037-0.16,0.074-0.328,0.111-0.506l0.723-2.127l0.779-2.129
		l0.834-2.182l0.946-2.129c0.148-0.389,0.296-0.762,0.445-1.117c0.148-0.355,0.314-0.709,0.5-1.065l3.895-8.62l3.951-8.673
		c0.63-1.49,1.252-2.961,1.864-4.417c0.612-1.454,1.196-2.944,1.753-4.47c0.296-0.745,0.575-1.489,0.834-2.234
		c0.259-0.745,0.519-1.507,0.779-2.288c0.259-0.781,0.491-1.562,0.695-2.341c0.204-0.781,0.38-1.579,0.529-2.395
		c0.074-0.39,0.129-0.789,0.167-1.197c0.037-0.408,0.074-0.825,0.111-1.251c0-0.212,0-0.433,0-0.665c0-0.23-0.019-0.452-0.056-0.665
		c-0.037-0.213-0.075-0.434-0.111-0.665c-0.038-0.231-0.093-0.453-0.167-0.666c-0.111-0.497-0.334-0.958-0.668-1.384
		c-0.075-0.106-0.167-0.203-0.278-0.292c-0.111-0.089-0.222-0.187-0.333-0.293c-0.186-0.141-0.427-0.266-0.724-0.372
		c-0.222-0.07-0.482-0.142-0.779-0.213h-1h-0.113h-1c-0.075,0-0.139,0.009-0.195,0.028c-0.056,0.017-0.121,0.026-0.195,0.026
		l-0.667,0.159c-0.482,0.178-0.891,0.355-1.224,0.532c-0.186,0.107-0.372,0.213-0.557,0.32c-0.186,0.106-0.371,0.231-0.556,0.372
		c-0.372,0.249-0.715,0.498-1.029,0.745c-0.316,0.25-0.622,0.515-0.918,0.798c-0.631,0.532-1.233,1.091-1.808,1.677
		c-0.576,0.585-1.123,1.18-1.642,1.782c-0.52,0.604-1.029,1.224-1.53,1.862c-0.5,0.639-0.993,1.277-1.474,1.916
		c-0.928,1.206-1.892,2.5-2.894,3.884c-0.928,1.292-1.811,2.591-2.671,3.893l1.279-2.936c0.259-0.567,0.501-1.117,0.723-1.649
		c0.223-0.532,0.426-1.082,0.612-1.649c0.185-0.567,0.37-1.126,0.556-1.676c0.186-0.55,0.353-1.126,0.501-1.73
		c0.074-0.354,0.148-0.656,0.223-0.905l0.167-0.904l0.167-1.862c0-0.178-0.01-0.337-0.028-0.479
		c-0.02-0.141-0.028-0.301-0.028-0.479c-0.038-0.177-0.065-0.346-0.083-0.505c-0.019-0.161-0.065-0.328-0.139-0.506
		c-0.075-0.177-0.139-0.354-0.195-0.533c-0.056-0.177-0.158-0.354-0.306-0.531c-0.148-0.213-0.278-0.354-0.389-0.426
		c-0.111-0.106-0.278-0.23-0.501-0.372c-0.334-0.178-0.723-0.301-1.168-0.373c-0.186-0.035-0.362-0.053-0.529-0.053
		c-0.167,0-0.343,0-0.528,0c-0.068,0.013-0.12,0.018-0.183,0.029c-0.097-0.011-0.198-0.029-0.289-0.029c-0.167,0-0.343,0-0.528,0
		c-0.186,0.036-0.353,0.062-0.501,0.08c-0.148,0.019-0.315,0.062-0.5,0.133l-0.946,0.32c-0.297,0.142-0.584,0.284-0.862,0.425
		c-0.278,0.142-0.548,0.302-0.807,0.479l-1.502,1.117c-0.482,0.392-0.937,0.781-1.363,1.171c-0.427,0.391-0.844,0.798-1.252,1.224
		l-1.28,1.277l-1.168,1.331l-0.612,0.639l-0.557,0.692l-1.168,1.33c-0.742,0.923-1.466,1.845-2.17,2.767
		c-0.705,0.923-1.41,1.862-2.114,2.821c-0.705,0.958-1.391,1.915-2.059,2.873c-0.667,0.958-1.317,1.935-1.947,2.927
		c-1.299,1.916-2.541,3.823-3.728,5.72c-0.312,0.499-0.625,1.01-0.937,1.515c0.735-2.025,1.466-4.053,2.187-6.09
		c0.834-2.36,1.678-4.71,2.532-7.051l1.335-3.511l0.667-1.703l0.724-1.704l0.723-1.703c0.111-0.283,0.231-0.55,0.362-0.798
		c0.129-0.248,0.269-0.514,0.417-0.798l0.39-0.745l0.223-0.372l0.278-0.373l0.5-0.532c0.074-0.071,0.185-0.142,0.334-0.213
		l0.167-0.106h0.056l0.056-0.053h0.056c0.147,0,0.259-0.088,0.333-0.266c0.074-0.248-0.019-0.408-0.278-0.479h-0.056
		c0-0.035-0.019-0.053-0.056-0.053h-0.557c-0.111,0-0.214,0.009-0.306,0.026c-0.026,0.005-0.059,0.016-0.086,0.022
		c-0.002-0.029-0.018-0.049-0.051-0.049h-0.557c-0.111,0-0.214,0.009-0.306,0.026c-0.093,0.019-0.194,0.045-0.306,0.08
		c-0.334,0.142-0.668,0.337-1.001,0.586c-0.557,0.39-1.077,0.87-1.558,1.437c-0.223,0.284-0.437,0.55-0.64,0.798
		c-0.204,0.248-0.399,0.514-0.584,0.798l-1.001,1.703c-0.594,1.064-1.15,2.218-1.669,3.459l-1.502,3.458l-0.612,1.49
		c-0.111,0.248-0.223,0.488-0.334,0.718c-0.111,0.231-0.242,0.47-0.39,0.718c-0.297,0.533-0.612,1.064-0.946,1.596
		c-0.334,0.533-0.687,1.047-1.057,1.543c-0.743,1.029-1.502,2.04-2.281,3.033c-0.779,0.994-1.595,1.968-2.448,2.927
		c-1.669,1.88-3.394,3.742-5.175,5.587l-2.615,2.766c-0.445,0.462-0.89,0.915-1.335,1.357c-0.445,0.445-0.872,0.914-1.28,1.411
		c-1.818,1.844-3.525,3.743-5.119,5.693l-1.168,1.543c-0.186,0.249-0.362,0.506-0.529,0.771c-0.167,0.267-0.343,0.542-0.528,0.826
		c-0.372,0.602-0.687,1.17-0.946,1.703c-0.148,0.283-0.288,0.576-0.417,0.877c-0.13,0.301-0.232,0.594-0.306,0.878
		c-0.26,0.709-0.409,1.348-0.445,1.915c-0.111,0.674-0.111,1.331,0,1.969c0.074,0.745,0.297,1.401,0.668,1.969
		c0.185,0.283,0.408,0.558,0.667,0.825c0.259,0.266,0.557,0.487,0.891,0.666c0.259,0.177,0.612,0.319,1.057,0.425
		c0.185,0.07,0.361,0.114,0.528,0.133c0.167,0.017,0.343,0.044,0.529,0.08c0.313,0.03,0.619,0.021,0.919-0.012
		c0.028,0.005,0.052,0.006,0.081,0.012c0.37,0.036,0.732,0.026,1.085-0.027c0.352-0.053,0.714-0.115,1.085-0.186
		c0.371-0.072,0.723-0.16,1.057-0.266c0.334-0.106,0.648-0.231,0.946-0.373c0.334-0.142,0.649-0.301,0.946-0.478
		c0.296-0.178,0.593-0.355,0.89-0.532c1.149-0.745,2.207-1.597,3.171-2.554l0.668-0.745l0.333-0.373l0.167-0.213l0.167-0.159
		l1.224-1.596c0.185-0.285,0.362-0.559,0.529-0.825c0.167-0.267,0.342-0.542,0.528-0.826l0.946-1.649
		c0.334-0.567,0.64-1.134,0.918-1.703c0.278-0.567,0.565-1.134,0.862-1.703l1.391-2.98l0.5-0.851l3.505-6.013
		c1.187-2.021,2.401-4.017,3.645-5.986c1.243-1.968,2.513-3.928,3.812-5.879c0.296-0.497,0.612-0.976,0.946-1.437
		c0.333-0.461,0.667-0.939,1.001-1.437l2.003-2.874c1.335-1.915,2.727-3.778,4.173-5.587c0.741-0.922,1.493-1.817,2.253-2.687
		c0.76-0.87,1.566-1.712,2.42-2.528l1.28-1.17c0.222-0.178,0.445-0.354,0.667-0.532c0.223-0.177,0.445-0.354,0.668-0.532
		c0.259-0.177,0.5-0.346,0.723-0.505c0.223-0.16,0.463-0.311,0.723-0.453c0.259-0.177,0.51-0.319,0.751-0.425
		c0.241-0.107,0.509-0.214,0.807-0.32l0.779-0.213c0.036,0,0.061-0.011,0.095-0.013c0.367,0.04,0.686,0.12,0.908,0.279l0.333,0.426
		l0.167,0.532c0.037,0.249,0.046,0.488,0.028,0.718c-0.019,0.232-0.047,0.488-0.083,0.771c-0.075,0.25-0.139,0.498-0.194,0.745
		c-0.056,0.249-0.121,0.515-0.195,0.798c-0.111,0.462-0.278,0.977-0.501,1.543c-0.186,0.532-0.381,1.064-0.584,1.597
		c-0.205,0.531-0.417,1.046-0.64,1.543c-0.223,0.532-0.445,1.064-0.667,1.596c-0.223,0.532-0.464,1.046-0.724,1.543
		c-0.223,0.531-0.455,1.056-0.695,1.569c-0.242,0.514-0.492,1.038-0.751,1.57c-0.26,0.497-0.52,1.002-0.779,1.517
		c-0.26,0.514-0.52,1.037-0.779,1.57l-1.614,3.033c-1.076,2.093-2.161,4.15-3.255,6.173c-1.095,2.021-2.18,4.08-3.255,6.172
		c-0.52,1.029-1.039,2.074-1.558,3.139c-0.52,1.064-1.039,2.128-1.558,3.193c-0.223,0.532-0.455,1.063-0.695,1.596
		c-0.242,0.532-0.473,1.082-0.696,1.649c-0.111,0.284-0.223,0.568-0.333,0.851c-0.111,0.284-0.205,0.568-0.278,0.851
		c-0.111,0.284-0.214,0.568-0.306,0.852c-0.093,0.284-0.176,0.585-0.25,0.905c-0.075,0.354-0.019,0.691,0.167,1.011
		c0.185,0.319,0.463,0.532,0.834,0.639c0.329,0.086,0.628,0.054,0.909-0.045c0.033,0.012,0.057,0.035,0.091,0.045
		c0.408,0.106,0.779,0.07,1.113-0.106c0.334-0.179,0.557-0.462,0.668-0.852l0.556-1.543l0.668-1.543l1.391-3.086
		c0-0.035,0.009-0.062,0.028-0.08c0.018-0.017,0.028-0.044,0.028-0.08c1.149-2.057,2.299-4.105,3.45-6.146
		c1.149-2.039,2.318-4.07,3.505-6.093c0.815-1.382,1.622-2.757,2.42-4.123c0.797-1.366,1.622-2.723,2.476-4.07
		c0.853-1.348,1.715-2.688,2.587-4.019c0.871-1.33,1.752-2.651,2.643-3.964c0.481-0.673,0.946-1.33,1.391-1.968
		c0.445-0.639,0.927-1.277,1.447-1.916c0.482-0.603,0.982-1.214,1.502-1.835c0.519-0.621,1.038-1.232,1.558-1.835
		c0.296-0.284,0.575-0.567,0.834-0.853c0.259-0.283,0.537-0.566,0.834-0.851c0.296-0.283,0.584-0.558,0.863-0.825
		c0.278-0.266,0.565-0.522,0.862-0.771c0.296-0.248,0.612-0.487,0.946-0.718c0.334-0.23,0.667-0.434,1.001-0.611
		c0.296-0.178,0.648-0.354,1.057-0.532c0.334-0.177,0.686-0.284,1.057-0.32l0.265-0.056c0.006,0,0.009,0.003,0.015,0.003
		c0.037,0,0.064,0.009,0.083,0.026c0.019,0.019,0.064,0.026,0.139,0.026l0.39,0.161c0.223,0.106,0.39,0.284,0.5,0.531
		c0.111,0.142,0.204,0.409,0.278,0.798c0.037,0.178,0.056,0.346,0.056,0.506c0,0.159,0,0.328,0,0.506s-0.009,0.345-0.028,0.505
		c-0.019,0.16-0.047,0.329-0.083,0.506c-0.075,0.39-0.148,0.763-0.223,1.117c-0.075,0.356-0.148,0.71-0.222,1.065
		c-0.075,0.391-0.167,0.764-0.278,1.117c-0.111,0.355-0.223,0.728-0.334,1.118l-0.723,2.182c-0.297,0.745-0.584,1.48-0.863,2.207
		c-0.278,0.728-0.566,1.446-0.862,2.155c-0.297,0.71-0.604,1.437-0.918,2.182c-0.315,0.745-0.622,1.473-0.918,2.182l-1.001,2.129
		c-0.149,0.39-0.297,0.754-0.445,1.09c-0.149,0.337-0.315,0.701-0.501,1.09l-4.006,8.621c-0.668,1.454-1.327,2.899-1.976,4.336
		c-0.649,1.437-1.289,2.9-1.919,4.39l-0.89,2.182c-0.149,0.39-0.297,0.771-0.445,1.144c-0.148,0.373-0.297,0.754-0.445,1.145
		c-0.148,0.39-0.288,0.771-0.417,1.144c-0.13,0.373-0.25,0.753-0.362,1.145c-0.297,0.815-0.501,1.596-0.612,2.341
		c-0.075,0.213-0.121,0.416-0.139,0.612c-0.02,0.194-0.047,0.398-0.083,0.611l-0.111,1.277c0,0.247,0.009,0.479,0.028,0.692
		c0.018,0.212,0.046,0.443,0.083,0.692c0.036,0.106,0.056,0.221,0.056,0.345c0,0.124,0.036,0.24,0.111,0.347
		c0.074,0.319,0.203,0.567,0.389,0.745c0.074,0.141,0.167,0.266,0.278,0.372s0.259,0.195,0.445,0.266
		c0.259,0.142,0.556,0.214,0.89,0.214c0.192,0,0.36-0.023,0.516-0.058c0.152,0.038,0.313,0.058,0.484,0.058
		c0.334,0,0.612-0.053,0.834-0.16c0.223-0.036,0.445-0.143,0.668-0.32c0.185-0.106,0.361-0.222,0.528-0.345
		c0.167-0.125,0.343-0.259,0.529-0.4l0.89-0.904c0.296-0.284,0.575-0.577,0.834-0.878c0.259-0.301,0.519-0.612,0.779-0.931
		l1.502-1.917c0.482-0.674,0.937-1.338,1.363-1.995c0.426-0.657,0.863-1.322,1.308-1.996c0.408-0.709,0.815-1.392,1.224-2.049
		c0.408-0.656,0.815-1.338,1.224-2.048c0.408-0.709,0.807-1.41,1.196-2.102c0.39-0.692,0.77-1.392,1.141-2.102l2.281-4.203
		L189.837,46.344z M118.004,70.051c-0.52-0.271-0.928-0.61-1.224-1.017c-0.297-0.509-0.5-1-0.612-1.475
		c-0.075-0.543-0.075-1.103,0-1.678c0.074-0.61,0.203-1.17,0.389-1.679c0.074-0.271,0.167-0.542,0.278-0.813
		s0.223-0.542,0.334-0.813c0.148-0.271,0.287-0.534,0.417-0.788c0.13-0.254,0.287-0.518,0.473-0.788
		c0.296-0.542,0.63-1.033,1.001-1.475c0.186-0.271,0.371-0.517,0.557-0.737c0.185-0.22,0.37-0.466,0.556-0.737
		c0.408-0.475,0.815-0.932,1.224-1.373c0.408-0.44,0.815-0.897,1.224-1.373c0.408-0.474,0.835-0.923,1.28-1.348
		c0.445-0.423,0.891-0.855,1.335-1.296c1.781-1.763,3.552-3.509,5.314-5.237c1.761-1.729,3.478-3.525,5.146-5.391
		c0.853-0.915,1.669-1.855,2.448-2.822c0.246-0.305,0.478-0.616,0.72-0.923l-2.054,5.271c-0.445,1.119-0.882,2.237-1.308,3.356
		c-0.427,1.118-0.882,2.237-1.363,3.355c-0.89,2.204-1.836,4.391-2.838,6.56c-0.297,0.543-0.566,1.077-0.807,1.603
		c-0.242,0.525-0.51,1.042-0.807,1.551L128.8,61.56c-0.148,0.271-0.297,0.517-0.445,0.737c-0.149,0.22-0.316,0.466-0.501,0.737
		c-0.26,0.474-0.576,0.966-0.946,1.475l-0.111,0.203l-0.111,0.203l-0.278,0.306l-0.5,0.712c-0.409,0.474-0.807,0.915-1.196,1.321
		c-0.39,0.407-0.826,0.797-1.308,1.17c-0.223,0.169-0.455,0.331-0.696,0.483c-0.242,0.152-0.492,0.312-0.751,0.482
		c-0.52,0.339-1.057,0.576-1.614,0.712c-0.425,0.114-0.814,0.176-1.188,0.213C118.745,70.275,118.354,70.2,118.004,70.051z
		 M137.146,39.211c0.779-0.966,1.539-1.939,2.282-2.924l0.5-0.712L139.8,35.9c-0.738,0.977-1.493,1.937-2.266,2.879
		c-0.486,0.592-1.013,1.167-1.528,1.746C136.385,40.086,136.783,39.662,137.146,39.211z M115.168,65.882
		c0.074-0.61,0.203-1.17,0.389-1.679c0.074-0.271,0.167-0.542,0.278-0.813s0.223-0.542,0.334-0.813
		c0.148-0.271,0.287-0.534,0.417-0.788c0.13-0.254,0.287-0.518,0.473-0.788c0.296-0.542,0.63-1.033,1.001-1.475
		c0.186-0.271,0.371-0.517,0.557-0.737c0.185-0.22,0.37-0.466,0.556-0.737c0.408-0.475,0.815-0.932,1.224-1.373
		c0.408-0.44,0.815-0.897,1.224-1.373c0.408-0.474,0.835-0.923,1.28-1.348c0.388-0.369,0.776-0.748,1.164-1.13
		c-1.583,1.568-3.095,3.17-4.504,4.816l-1.168,1.475c-0.186,0.238-0.362,0.483-0.529,0.737c-0.167,0.255-0.343,0.518-0.528,0.789
		c-0.372,0.575-0.687,1.118-0.946,1.627c-0.148,0.271-0.288,0.551-0.417,0.839c-0.13,0.287-0.232,0.567-0.306,0.839
		c-0.26,0.678-0.409,1.288-0.445,1.83c-0.111,0.644-0.111,1.271,0,1.882c0.007,0.07,0.034,0.129,0.044,0.198
		c-0.031-0.1-0.075-0.201-0.098-0.299C115.093,67.017,115.093,66.458,115.168,65.882z M163.964,39.746l0.007-0.016
		c0.531-0.844,1.053-1.689,1.608-2.526c0.049-0.074,0.1-0.147,0.149-0.221C165.137,37.893,164.549,38.813,163.964,39.746z
		 M174.035,25.458c-0.928,1.152-1.892,2.39-2.894,3.712c-0.37,0.492-0.722,0.986-1.081,1.48c0.251-0.357,0.497-0.718,0.749-1.074
		c0.481-0.644,0.946-1.271,1.391-1.881c0.445-0.61,0.927-1.221,1.447-1.831c0.326-0.39,0.672-0.789,1.016-1.186
		C174.454,24.938,174.24,25.198,174.035,25.458z"/>
</g>
</svg>
