<?xml version="1.0" encoding="utf-8"?>
<!-- Generator: Adobe Illustrator 15.1.0, SVG Export Plug-In . SVG Version: 6.00 Build 0)  -->
<!DOCTYPE svg PUBLIC "-//W3C//DTD SVG 1.1//EN" "http://www.w3.org/Graphics/SVG/1.1/DTD/svg11.dtd">
<svg version="1.1" id="Layer_1" xmlns="http://www.w3.org/2000/svg" xmlns:xlink="http://www.w3.org/1999/xlink" x="0px" y="0px"
	 width="154.263px" height="59.294px" viewBox="0 0 154.263 59.294" enable-background="new 0 0 154.263 59.294"
	 xml:space="preserve">
<g>
	<path fill-rule="evenodd" clip-rule="evenodd" fill="#BA9740" stroke="#BA9740" stroke-width="0.3658" stroke-miterlimit="10" d="
		M33.146,22.211c-4.73-1.179-9.006,4.995-8.604,9.653l4.768-0.521C30.6,28.335,33.47,25.688,33.146,22.211z"/>
	<path fill-rule="evenodd" clip-rule="evenodd" fill="#BA9740" stroke="#BA9740" stroke-width="0.3658" stroke-miterlimit="10" d="
		M52.199,29.548l1.404-0.129C53.134,29.43,52.663,29.478,52.199,29.548z"/>
	<path fill-rule="evenodd" clip-rule="evenodd" fill="#BA9740" stroke="#BA9740" stroke-width="0.3658" stroke-miterlimit="10" d="
		M145.482,28.124c-1.657-1.181-2.751-2.746-4.712-3.917c0-0.136-0.007-0.271-0.028-0.404c0.785-0.108,1.45-0.201,2.032-0.276
		c1.854,0.203,3.083-0.208,3.434-1.284c2.665,0.782,5.477,0.416,6.334-2.309c-2.051,0.32-3.677,0.304-5.198,0.008
		c0.515-0.54,0.939-1.004,1.047-1.447c2.086,0.215,4.005-0.487,5.873-2.876c-2.912-1.33-5.362-1.507-7.728-0.45
		c0.007-0.032,0.015-0.065,0.021-0.1c-0.235-0.23-0.493-0.418-0.75-0.582c0.804-0.854,1.672-1.628,2.769-2.146
		c-2.618-0.327-4.94,0.057-6.398,1.603c-0.104,0.08-0.2,0.16-0.296,0.241c-1.951-1.015-3.565,1.026-5.931,3.251l-0.418,0.166
		c-0.382-0.236-0.761-0.454-1.129-0.656c2.001-3.437,5.977-6.178,7.234-10.438c-0.414-0.087-2.622,0.604-3.219,0.609
		c-1.562,0.741-3.979,1.956-5.849,3.656l-0.218-0.241l-0.386-0.073c1.008-2.282,1.943-4.696,1.84-5.929
		c-6.52,0.045-10.706,8.674-13.497,14.326c0.144,0.555-0.574,0.3-0.481,0.912c-0.314,0.07,0.2,0.907-0.111,0.972l-0.075-0.084
		c-1.061-0.352-1.893,0.095-2.7,0.633c-1.097,0.205-2.18,0.4-3.258,0.586l-1.083-0.056c0.104,0.073,0.211,0.127,0.321,0.181
		c-0.282,0.048-0.564,0.095-0.839,0.14c0.175-0.099,0.354-0.2,0.518-0.32c1.951-6.806,8.385-12.409,7.271-19.849
		c-7.617,1.976-11.282,12.879-11.282,20.161c0.293,0.195,0.597,0.32,0.896,0.398c-0.907,0.134-1.811,0.257-2.726,0.373
		c0.618-0.231,1.232-0.485,1.829-0.771l-9.12,1.562c-1.965,0.173-3.977,0.323-6.052,0.453c4.776-7.116,12.196-12.714,14.536-21.37
		c-0.543-0.537-1.154-0.995-1.943-1.036c-9.067,4.046-16.583,12.924-18.898,22.615c0.2,0.06,0.4,0.105,0.597,0.14
		c-0.329,0.071-0.629,0.15-0.9,0.23c0.107-0.112,0.207-0.235,0.304-0.37l-1.204,0.67c-1.814,0.704-2.493,1.533-5.798,1.87
		c-0.861,0.088-1.729,0.177-2.601,0.265C78.792,17.899,91.599,10.546,89.648,0c-10.152,4.769-15.75,16.985-18.352,27.79
		c-3.943,0.395-7.931,0.787-11.882,1.155c5.184-7.159,10.961-14.758,11.493-23.934c-0.532-0.536-1.144-0.996-1.926-1.025
		c-8.056,6.138-13.29,15.553-15.379,25.433l2.733-0.186c-1.579,0.143-3.151,0.28-4.701,0.414c0.186-0.032,0.378-0.069,0.564-0.1
		l-5.337,0.505c-1.769,0.175-3.512,0.3-5.23,0.405c4.129-6.521,12.907-13.567,10.557-21.722
		C44.764,11.811,38.43,22.053,39.02,30.615c-2.812,0.168-5.589,0.344-8.383,0.689l-1.327,0.038
		c-0.381,0.105-0.731,0.201-1.063,0.296c-1.204,0.193-2.415,0.428-3.629,0.717l-0.075-0.491l0.075,0.491
		c-0.111,0.025-0.216,0.045-0.323,0.069L23.68,32.4c-0.095,0.199-0.202,0.407-0.3,0.608l-0.141,0.04
		c-2.812,1.646-4.149,1.05-8.34,0.907l-2.924-0.196l-2.02,0.257L0.27,32.705L0,33.188c0,0,3.07,6.041,6.782,7.724
		c6.618-1.271,13.059,0.14,18.034-1.747c1.507,0.379,2.869,0.433,4.49,0.34c3.172,6.173,10.188,11.417,16.776,14.032
		c0.532-0.543,0.993-1.157,1.025-1.943c-3.008-5.852-9.192-8.859-14.556-12.36c2.631-0.25,5.561-0.918,8.511-1.486
		c5.391,10.925,17.69,22.331,30.026,21.506c-4.501-9.639-15.633-14.822-23.617-21.56l-1.926-0.661c0.465-0.05,0.925-0.1,1.383-0.128
		c0.879-0.043,1.679-0.086,2.429-0.129c-0.657,0.235-1.286,0.558-1.886,0.918l3.615-1.018c2.99-0.187,5.166-0.379,8.195-0.679
		l-0.004,0.014c0-0.007,0.004-0.014,0.004-0.014c0.414-0.043,0.851-0.086,1.297-0.129l-1.301,0.143
		c4.912,10.731,17.134,20.556,28.701,21.942c-2.34-10.996-16.04-15.337-23.899-22.438c1.068-0.107,2.251-0.226,3.565-0.354
		c2.954-0.286,7.016-0.769,11.353-1.443c1.822,11.521,15.391,18.262,25.383,19.98c-2.087-9.66-14.661-13.793-21.346-20.553
		c-0.114-0.014-0.235-0.028-0.357-0.05c0.301-0.05,0.607-0.107,0.907-0.161c-0.182,0.072-0.367,0.133-0.55,0.211l1.422-0.377
		c4.604-0.877,9.131-1.979,12.632-3.306c0.021-0.008,0.043-0.02,0.072-0.028l0.36-0.094c-0.11,0.029-0.225,0.056-0.336,0.082
		c1.183-0.446,2.243-0.899,3.262-1.316l0,0l0,0c0,0,0.004-0.001,0.007,0c-0.003-0.001-0.007,0-0.007,0l8.181-1.48
		c-0.149-0.123-0.307-0.223-0.464-0.316c0.16-0.003,0.321-0.005,0.493-0.001c0.307,0.012,0.606,0.016,0.896,0.021
		c-0.308,0.068-0.618,0.165-0.926,0.297l4.037-0.173c-0.482,5.228,11.918,14.381,17.891,15.553
		c-0.114-7.738-10.438-10.485-15.051-15.68l-2.411-0.077c1.329-0.078,2.604-0.184,3.944-0.285l-1.533,0.362l1.837,0.713
		c0.768-0.445,1.518-0.967,2.336-1.243c0.754-0.068,1.708,0.048,2.794,0.271c0.128,0.071,0.264,0.145,0.396,0.237l0.028-0.145
		c0.246,0.057,0.497,0.114,0.758,0.181c2.265,6.072,11.464,11.135,17.14,10.017c0.265-1.736-0.696-4.708-2.482-5.707
		c-0.611-0.355-2.032-1.765-2.129-1.859c0.336-0.03,0.657-0.073,0.965-0.142c2.508,1.617,5.029,1.578,7.823,2.805
		c0.414-0.265,1.519-0.254,1.793-0.646C146.679,30.005,146.064,29.081,145.482,28.124z M144.318,16.54
		c-0.043,0.03-0.083,0.066-0.126,0.101c-0.032-0.053-0.063-0.101-0.1-0.15L144.318,16.54z M141.535,23.318l-0.808,0.338
		c-0.028-0.191-0.064-0.379-0.118-0.564C140.931,23.176,141.238,23.255,141.535,23.318z M91.942,24.264l0.718-0.018
		c-0.239,0.013-0.525,0.023-0.843,0.028C91.863,24.27,91.903,24.264,91.942,24.264z"/>
	<path fill-rule="evenodd" clip-rule="evenodd" fill="#BA9740" stroke="#BA9740" stroke-width="0.3658" stroke-miterlimit="10" d="
		M118.618,46.938c-2.033-8.617-13.422-11.707-18.17-18.833l-2.926,1.234C98.472,38.653,109.869,47.842,118.618,46.938z"/>
</g>
</svg>
