<?xml version="1.0" encoding="utf-8"?>
<!-- Generator: Adobe Illustrator 15.1.0, SVG Export Plug-In . SVG Version: 6.00 Build 0)  -->
<!DOCTYPE svg PUBLIC "-//W3C//DTD SVG 1.1//EN" "http://www.w3.org/Graphics/SVG/1.1/DTD/svg11.dtd">
<svg version="1.1" id="Layer_1" xmlns="http://www.w3.org/2000/svg" xmlns:xlink="http://www.w3.org/1999/xlink" x="0px" y="0px"
	 width="111.292px" height="21px" viewBox="0 0 111.292 21" enable-background="new 0 0 111.292 21" xml:space="preserve">
<g>
	<path fill="#651139" d="M103.896,5.21c-0.144-0.241-0.3-0.457-0.468-0.648c-0.168-0.192-0.349-0.385-0.54-0.576
		c-0.336-0.336-0.745-0.625-1.224-0.864c-0.48-0.241-0.936-0.444-1.368-0.612c-0.432-0.169-0.889-0.3-1.368-0.396
		c-0.48-0.097-0.948-0.192-1.404-0.288c-0.457-0.097-0.925-0.169-1.404-0.216c-0.48-0.097-0.948-0.168-1.404-0.216
		c-0.457-0.048-0.948-0.072-1.476-0.072c-0.96-0.048-1.896-0.048-2.808,0c-1.872,0-3.744,0.072-5.616,0.216l-5.544,0.648
		c-0.961,0.096-1.884,0.216-2.772,0.36c-0.889,0.144-1.789,0.288-2.7,0.432c-1.825,0.288-3.625,0.551-5.4,0.792
		c-1.776,0.24-3.577,0.407-5.4,0.504c-1.825,0.096-3.625,0.132-5.4,0.108c-1.776-0.025-3.576-0.157-5.4-0.396
		c-1.825-0.192-3.625-0.48-5.4-0.864c-0.912-0.192-1.812-0.385-2.7-0.576c-0.889-0.192-1.789-0.408-2.7-0.648l-0.072,0.144
		c1.631,0.911,3.336,1.728,5.112,2.448c1.68,0.72,3.456,1.296,5.328,1.728c0.959,0.239,1.896,0.443,2.808,0.612
		c0.912,0.167,1.847,0.299,2.808,0.396c0.959,0.096,1.919,0.167,2.88,0.216c0.96,0.047,1.919,0.072,2.88,0.072
		c1.872-0.048,3.744-0.192,5.616-0.432c0.959-0.144,1.896-0.288,2.808-0.432c0.911-0.144,1.824-0.336,2.736-0.576l5.472-1.152
		c0.911-0.241,1.8-0.457,2.664-0.648c0.864-0.192,1.751-0.385,2.664-0.576c0.911-0.144,1.811-0.277,2.7-0.396
		c0.888-0.121,1.788-0.229,2.7-0.324c0.479-0.097,0.947-0.144,1.404-0.144c0.456,0,0.9-0.024,1.332-0.072h1.368
		c0.432,0,0.888,0.023,1.368,0.072c0.816,0,1.704,0.119,2.664,0.36c0.24,0.095,0.456,0.167,0.648,0.216
		c0.191,0.047,0.383,0.119,0.576,0.216c0.24,0.096,0.456,0.18,0.648,0.252c0.191,0.072,0.384,0.155,0.576,0.252l1.008,0.72
		c0.384,0.384,0.624,0.695,0.72,0.936c0.191,0.479,0.288,0.839,0.288,1.08c0,0.479-0.048,0.839-0.144,1.08
		c-0.144,0.383-0.336,0.744-0.576,1.08c-0.241,0.384-0.504,0.72-0.792,1.008c-0.288,0.335-0.601,0.636-0.936,0.9
		c-0.336,0.263-0.696,0.515-1.08,0.756c-0.672,0.479-1.44,0.912-2.304,1.296c-0.817,0.432-1.632,0.792-2.448,1.08
		c-0.864,0.335-1.728,0.611-2.592,0.828c-0.864,0.215-1.728,0.443-2.592,0.684c-1.825,0.384-3.625,0.672-5.4,0.863
		c-1.825,0.24-3.636,0.396-5.436,0.469c-1.8,0.072-3.612,0.107-5.436,0.107c-1.728-0.048-3.504-0.191-5.328-0.432
		c-0.913-0.049-1.8-0.192-2.664-0.432c-0.48-0.098-0.936-0.18-1.368-0.252s-0.864-0.156-1.296-0.252l-2.664-0.648l-2.664-0.72
		c-0.432-0.097-0.864-0.216-1.296-0.36c-0.432-0.144-0.864-0.287-1.296-0.432c-0.432-0.097-0.864-0.216-1.296-0.36
		c-0.432-0.144-0.864-0.288-1.296-0.432c-1.776-0.576-3.528-1.177-5.256-1.8c-1.728-0.624-3.456-1.249-5.184-1.872
		c-1.728-0.672-3.456-1.32-5.184-1.944c-1.728-0.625-3.48-1.224-5.256-1.8c-0.913-0.288-1.812-0.576-2.7-0.864
		c-0.889-0.288-1.789-0.552-2.7-0.792c-0.913-0.241-1.812-0.468-2.7-0.684c-0.889-0.216-1.789-0.444-2.7-0.684
		c-0.961-0.192-1.897-0.349-2.808-0.468c-0.913-0.12-1.849-0.229-2.808-0.324c-0.961-0.097-1.896-0.157-2.808-0.18
		c-0.912-0.025-1.848,0.011-2.808,0.108C8.808,1.441,8.339,1.49,7.884,1.538C7.427,1.585,6.959,1.657,6.48,1.754
		C6,1.85,5.531,1.958,5.076,2.078c-0.457,0.119-0.9,0.275-1.332,0.468C2.351,3.025,1.104,3.962,0,4.634
		c1.392-0.72,2.711-1.201,3.96-1.44c0.432-0.097,0.864-0.18,1.296-0.252C5.688,2.87,6.144,2.786,6.624,2.69
		c0.432-0.048,0.875-0.084,1.332-0.108c0.456-0.025,0.9-0.036,1.332-0.036c1.823,0,3.647,0.144,5.472,0.432
		c1.872,0.288,3.647,0.672,5.328,1.152c0.864,0.24,1.728,0.479,2.592,0.72c0.864,0.24,1.752,0.528,2.664,0.864
		c0.864,0.288,1.728,0.576,2.592,0.864c0.864,0.288,1.728,0.6,2.592,0.936l10.296,4.032c1.728,0.672,3.456,1.332,5.184,1.979
		c1.728,0.648,3.479,1.284,5.256,1.908l2.664,0.865c0.432,0.143,0.875,0.287,1.332,0.432c0.456,0.144,0.9,0.263,1.332,0.359
		l2.736,0.793l2.736,0.646c0.959,0.191,1.896,0.371,2.808,0.541c0.911,0.168,1.847,0.299,2.808,0.396
		c0.96,0.096,1.908,0.18,2.844,0.252s1.883,0.107,2.844,0.107c1.872-0.049,3.744-0.145,5.616-0.287
		c1.872-0.145,3.744-0.385,5.616-0.721c0.96-0.145,1.883-0.324,2.772-0.541c0.887-0.215,1.811-0.443,2.772-0.684
		c0.911-0.24,1.811-0.504,2.7-0.791c0.888-0.289,1.764-0.625,2.628-1.009c0.912-0.385,1.775-0.804,2.592-1.26
		c0.815-0.457,1.631-0.972,2.448-1.548c0.768-0.576,1.487-1.224,2.16-1.944l0.936-1.224l0.648-1.44
		c0.144-0.576,0.191-1.104,0.144-1.584C104.303,6.122,104.135,5.594,103.896,5.21z"/>
</g>
</svg>
